<?xml version="1.0" encoding="utf-8"?>
<!-- Generator: Adobe Illustrator 19.0.0, SVG Export Plug-In . SVG Version: 6.00 Build 0)  -->
<svg version="1.1" xmlns="http://www.w3.org/2000/svg" xmlns:xlink="http://www.w3.org/1999/xlink" x="0px" y="0px"
	 viewBox="0 0 160.4 160.4" style="enable-background:new 0 0 160.4 160.4;" xml:space="preserve">
<style type="text/css">
	.st0{fill:#FFFFFF;}
	.st1{fill:#333C42;}
	.st2{fill:url(#SVGID_1_);}
	.st3{fill:url(#SVGID_2_);}
	.st4{fill:url(#SVGID_3_);}
	.st5{fill:#939598;}
	.st6{fill:#58595B;}
</style>
<g id="background">
	<rect x="-252.8" y="-309.8" class="st0" width="1170" height="780"/>
	<rect x="-252.8" y="470.2" class="st1" width="585" height="780"/>
	<linearGradient id="SVGID_1_" gradientUnits="userSpaceOnUse" x1="283.4171" y1="1201.4564" x2="965.9171" y2="518.9564">
		<stop  offset="0.15" style="stop-color:#EC008C"/>
		<stop  offset="0.5" style="stop-color:#ED1651"/>
		<stop  offset="0.85" style="stop-color:#F58220"/>
	</linearGradient>
	<rect x="332.2" y="470.2" class="st2" width="585" height="780"/>
</g>
<g id="Logo">
	<g>
		<g>
			<linearGradient id="SVGID_2_" gradientUnits="userSpaceOnUse" x1="-27.5464" y1="879.4798" x2="106.8809" y2="745.0526">
				<stop  offset="0.15" style="stop-color:#EC008C"/>
				<stop  offset="0.5" style="stop-color:#ED1651"/>
				<stop  offset="0.85" style="stop-color:#F58220"/>
			</linearGradient>
			<path class="st3" d="M22.1,745.1c-27.4,0-49.7,22.2-49.7,49.7v84.8h84.8c27.4,0,49.7-22.2,49.7-49.7v-84.8H22.1z"/>
			<g>
				<polygon class="st0" points="42,775.8 33.2,767 84.9,767.1 85,818.7 76.1,809.9 76.1,775.8 				"/>
				<polygon class="st0" points="3.2,848.7 3.2,814.6 -5.6,805.8 -5.5,857.5 46.1,857.6 37.3,848.7 				"/>
				<polygon class="st0" points="17.8,782.4 54.9,848.7 61.5,842.1 24.4,775.8 				"/>
			</g>
		</g>
		<g>
			
				<text transform="matrix(1 0 0 1 -94.2687 972.0613)" class="st0" style="font-family:'Montserrat-Regular'; font-size:13.1965px; letter-spacing:2;">SOFTWARE AND TECHNOLOGY</text>
		</g>
		<g>
			
				<text transform="matrix(1 0 0 1 -49.4386 940.8143)" class="st0" style="font-family:'Montserrat-Bold'; font-size:45.3813px; letter-spacing:2;">THYNQ</text>
		</g>
	</g>
	<g>
		<g>
			<linearGradient id="SVGID_3_" gradientUnits="userSpaceOnUse" x1="2.187661e-06" y1="160.4128" x2="160.4128" y2="5.023724e-06">
				<stop  offset="0.15" style="stop-color:#EC008C"/>
				<stop  offset="0.5" style="stop-color:#ED1651"/>
				<stop  offset="0.85" style="stop-color:#F58220"/>
			</linearGradient>
			<path class="st4" d="M59.3,0C26.5,0,0,26.5,0,59.3v101.2h101.2c32.7,0,59.3-26.5,59.3-59.3V0H59.3z"/>
			<g>
				<polygon class="st0" points="83,36.7 72.5,26.2 134.2,26.3 134.2,87.9 123.7,77.4 123.7,36.7 				"/>
				<polygon class="st0" points="36.7,123.7 36.7,83 26.2,72.5 26.3,134.2 87.9,134.2 77.4,123.7 				"/>
				<polygon class="st0" points="54.1,44.5 98.4,123.7 106.3,115.9 62,36.7 				"/>
			</g>
		</g>
		<g>
			
				<text transform="matrix(1 0 0 1 210.5695 133.3227)" class="st5" style="font-family:'Montserrat-Regular'; font-size:22.504px; letter-spacing:4;">SOFTWARE AND TECHNOLOGY</text>
		</g>
		<g>
			
				<text transform="matrix(1 0 0 1 210.5696 80.0365)" class="st6" style="font-family:'Montserrat-Bold'; font-size:77.3891px; letter-spacing:3;">THYNQ</text>
		</g>
	</g>
	<g>
		<path class="st0" d="M607.1,745.1c-27.4,0-49.7,22.2-49.7,49.7v84.8h84.8c27.4,0,49.7-22.2,49.7-49.7v-84.8H607.1z M579.5,857.5
			l-0.1-51.7l8.8,8.8l0,34.1l34.1,0l8.8,8.8L579.5,857.5z M639.9,848.7l-37.1-66.4l6.6-6.6l37.1,66.4L639.9,848.7z M661.1,809.9
			l0-34.1l-34.1,0l-8.8-8.8l51.7,0.1l0.1,51.7L661.1,809.9z"/>
		<g>
			
				<text transform="matrix(1 0 0 1 490.7324 972.0613)" class="st0" style="font-family:'Montserrat-Regular'; font-size:13.1965px; letter-spacing:2;">SOFTWARE AND TECHNOLOGY</text>
		</g>
		<g>
			
				<text transform="matrix(1 0 0 1 535.5624 940.8143)" class="st0" style="font-family:'Montserrat-Bold'; font-size:45.3813px; letter-spacing:2;">THYNQ</text>
		</g>
	</g>
</g>
</svg>
